<svg width="23" height="22" viewBox="0 0 23 22" fill="none" xmlns="http://www.w3.org/2000/svg">
<path d="M21.2335 8.29863L14.2806 1.34063C13.4201 0.482103 12.2545 0 11.0393 0C9.82409 0 8.65847 0.482103 7.79795 1.34063L0.845036 8.29863C0.58876 8.55342 0.385576 8.85657 0.247263 9.19052C0.108949 9.52446 0.0382583 9.88256 0.0392872 10.244V19.2484C0.0392872 19.9781 0.329018 20.678 0.844743 21.1941C1.36047 21.7101 2.05994 22 2.78928 22H19.2893C20.0186 22 20.7181 21.7101 21.2338 21.1941C21.7495 20.678 22.0393 19.9781 22.0393 19.2484V10.244C22.0403 9.88256 21.9696 9.52446 21.8313 9.19052C21.693 8.85657 21.4898 8.55342 21.2335 8.29863ZM13.7893 20.1656H8.28928V16.5572C8.28928 15.8275 8.57901 15.1276 9.09474 14.6115C9.61046 14.0955 10.3099 13.8056 11.0393 13.8056C11.7686 13.8056 12.4681 14.0955 12.9838 14.6115C13.4995 15.1276 13.7893 15.8275 13.7893 16.5572V20.1656ZM20.2059 19.2484C20.2059 19.4916 20.1094 19.7249 19.9375 19.8969C19.7655 20.0689 19.5324 20.1656 19.2893 20.1656H15.6226V16.5572C15.6226 15.3409 15.1397 14.1744 14.2802 13.3144C13.4206 12.4543 12.2549 11.9712 11.0393 11.9712C9.8237 11.9712 8.65792 12.4543 7.79837 13.3144C6.93883 14.1744 6.45595 15.3409 6.45595 16.5572V20.1656H2.78928C2.54617 20.1656 2.31301 20.0689 2.1411 19.8969C1.9692 19.7249 1.87262 19.4916 1.87262 19.2484V10.244C1.87347 10.001 1.96996 9.76799 2.1412 9.59557L9.09411 2.64032C9.61084 2.1257 10.3102 1.83679 11.0393 1.83679C11.7683 1.83679 12.4677 2.1257 12.9844 2.64032L19.9374 9.59832C20.1079 9.77007 20.2044 10.0019 20.2059 10.244V19.2484Z" fill="black"/>
</svg>
