<svg width="23" height="23" viewBox="0 0 23 23" fill="none" xmlns="http://www.w3.org/2000/svg">
<path d="M18.0714 2.54821C16.909 1.58186 15.5589 0.866503 14.1061 0.447218C12.6533 0.0279336 11.1293 -0.08619 9.63015 0.112039C6.85682 0.471982 4.32455 1.87288 2.54752 4.03027C0.770495 6.18767 -0.118085 8.93985 0.0622093 11.728C0.242503 14.5161 1.47816 17.1312 3.51827 19.0422C5.55838 20.9533 8.25002 22.017 11.0467 22.0175H17.4521C18.6683 22.016 19.8342 21.5327 20.6941 20.6736C21.5541 19.8145 22.0378 18.6497 22.0393 17.4347V10.3278C21.9422 8.8297 21.5402 7.36709 20.858 6.02945C20.1757 4.6918 19.2276 3.50725 18.0714 2.54821ZM7.36043 6.4362H11.0301C11.2735 6.4362 11.5068 6.53276 11.6789 6.70465C11.8509 6.87653 11.9476 7.10966 11.9476 7.35274C11.9476 7.59582 11.8509 7.82895 11.6789 8.00084C11.5068 8.17272 11.2735 8.26929 11.0301 8.26929H7.36043C7.11711 8.26929 6.88376 8.17272 6.71171 8.00084C6.53966 7.82895 6.443 7.59582 6.443 7.35274C6.443 7.10966 6.53966 6.87653 6.71171 6.70465C6.88376 6.53276 7.11711 6.4362 7.36043 6.4362ZM14.6999 15.6016H7.36043C7.11711 15.6016 6.88376 15.5051 6.71171 15.3332C6.53966 15.1613 6.443 14.9282 6.443 14.6851C6.443 14.442 6.53966 14.2089 6.71171 14.037C6.88376 13.8651 7.11711 13.7686 7.36043 13.7686H14.6999C14.9432 13.7686 15.1765 13.8651 15.3486 14.037C15.5206 14.2089 15.6173 14.442 15.6173 14.6851C15.6173 14.9282 15.5206 15.1613 15.3486 15.3332C15.1765 15.5051 14.9432 15.6016 14.6999 15.6016ZM14.6999 11.9355H7.36043C7.11711 11.9355 6.88376 11.8389 6.71171 11.667C6.53966 11.4951 6.443 11.262 6.443 11.0189C6.443 10.7758 6.53966 10.5427 6.71171 10.3708C6.88376 10.1989 7.11711 10.1024 7.36043 10.1024H14.6999C14.9432 10.1024 15.1765 10.1989 15.3486 10.3708C15.5206 10.5427 15.6173 10.7758 15.6173 11.0189C15.6173 11.262 15.5206 11.4951 15.3486 11.667C15.1765 11.8389 14.9432 11.9355 14.6999 11.9355Z" fill="url(#paint0_linear_16_950)"/>
<defs>
<linearGradient id="paint0_linear_16_950" x1="11.0393" y1="0.0174561" x2="11.0393" y2="22.0175" gradientUnits="userSpaceOnUse">
<stop stop-color="#FF6A6A"/>
<stop offset="1" stop-color="#FF38EB"/>
</linearGradient>
</defs>
</svg>
