<svg width="13" height="14" viewBox="0 0 13 14" fill="none" xmlns="http://www.w3.org/2000/svg">
<path d="M8.27281 3.5C8.42953 3.5 8.57983 3.56146 8.69065 3.67085C8.80147 3.78025 8.86372 3.92862 8.86372 4.08333C8.86372 4.23804 8.80147 4.38642 8.69065 4.49581C8.57983 4.60521 8.42953 4.66667 8.27281 4.66667H3.54549C3.38877 4.66667 3.23847 4.60521 3.12765 4.49581C3.01683 4.38642 2.95457 4.23804 2.95457 4.08333C2.95457 3.92862 3.01683 3.78025 3.12765 3.67085C3.23847 3.56146 3.38877 3.5 3.54549 3.5H8.27281ZM12.827 13.8291C12.7162 13.9384 12.5659 13.9999 12.4092 13.9999C12.2525 13.9999 12.1022 13.9384 11.9914 13.8291L10.5691 12.425C10.1479 12.6904 9.65888 12.832 9.15918 12.8333C8.63326 12.8333 8.11914 12.6794 7.68185 12.3909C7.24456 12.1025 6.90374 11.6925 6.70248 11.2129C6.50121 10.7332 6.44855 10.2054 6.55116 9.69622C6.65376 9.18702 6.90702 8.71929 7.2789 8.35218C7.65078 7.98507 8.12459 7.73506 8.64041 7.63377C9.15623 7.53249 9.69089 7.58447 10.1768 7.78315C10.6627 7.98183 11.078 8.31828 11.3702 8.74996C11.6623 9.18164 11.8183 9.68916 11.8183 10.2083C11.817 10.7016 11.6735 11.1844 11.4047 11.6002L12.827 13.0043C12.9378 13.1136 13 13.262 13 13.4167C13 13.5713 12.9378 13.7197 12.827 13.8291ZM9.15918 11.6667C9.45136 11.6667 9.73698 11.5811 9.97992 11.4209C10.2229 11.2607 10.4122 11.0329 10.524 10.7664C10.6358 10.4999 10.6651 10.2067 10.6081 9.92383C10.5511 9.64094 10.4104 9.38109 10.2038 9.17714C9.99718 8.97319 9.73395 8.83429 9.44738 8.77802C9.16082 8.72175 8.86378 8.75063 8.59385 8.86101C8.32391 8.97139 8.09319 9.15831 7.93086 9.39813C7.76853 9.63795 7.68189 9.9199 7.68189 10.2083C7.68189 10.5951 7.83753 10.966 8.11458 11.2395C8.39163 11.513 8.76738 11.6667 9.15918 11.6667ZM6.50006 12.8333H2.95457C2.48441 12.8333 2.03351 12.649 1.70105 12.3208C1.3686 11.9926 1.18183 11.5475 1.18183 11.0833V2.91667C1.18183 2.45254 1.3686 2.00742 1.70105 1.67923C2.03351 1.35104 2.48441 1.16667 2.95457 1.16667H10.0456C10.2023 1.16667 10.3526 1.22812 10.4634 1.33752C10.5742 1.44692 10.6365 1.59529 10.6365 1.75V6.41667C10.6365 6.57138 10.6987 6.71975 10.8095 6.82915C10.9204 6.93854 11.0707 7 11.2274 7C11.3841 7 11.5344 6.93854 11.6452 6.82915C11.756 6.71975 11.8183 6.57138 11.8183 6.41667V1.75C11.8183 1.28587 11.6315 0.840752 11.2991 0.512563C10.9666 0.184374 10.5157 0 10.0456 0H2.95457C2.17126 0.00092625 1.4203 0.308514 0.866411 0.855295C0.312524 1.40208 0.000938289 2.1434 0 2.91667V11.0833C0.000938289 11.8566 0.312524 12.5979 0.866411 13.1447C1.4203 13.6915 2.17126 13.9991 2.95457 14H6.50006C6.65678 14 6.80709 13.9385 6.9179 13.8291C7.02872 13.7198 7.09098 13.5714 7.09098 13.4167C7.09098 13.262 7.02872 13.1136 6.9179 13.0042C6.80709 12.8948 6.65678 12.8333 6.50006 12.8333Z" fill="black"/>
</svg>
