<svg width="14" height="15" viewBox="0 0 14 15" fill="none" xmlns="http://www.w3.org/2000/svg">
<path d="M12.836 0.5H9.34388V1.66402H12.013L8.03666 5.64038C5.88465 3.94288 2.76401 4.31133 1.06651 6.46334C-0.630988 8.61535 -0.262503 11.736 1.88951 13.4335C4.04151 15.131 7.16215 14.7625 8.85965 12.6105C10.2814 10.8081 10.2814 8.26579 8.85965 6.46337L12.836 2.48701V5.15615H14V1.66402C14 1.02114 13.4789 0.5 12.836 0.5ZM4.97875 13.3044C2.88938 13.3044 1.19563 11.6106 1.19563 9.52127C1.19563 7.43191 2.88938 5.73816 4.97875 5.73816C7.06811 5.73816 8.76187 7.43191 8.76187 9.52127C8.7593 11.6096 7.06705 13.3018 4.97875 13.3044Z" fill="#4D89FF"/>
</svg>
