<svg width="23" height="23" viewBox="0 0 23 23" fill="none" xmlns="http://www.w3.org/2000/svg">
<path d="M22.0393 10.3302C21.9067 8.18732 21.1494 6.13007 19.8607 4.41205C18.5719 2.69402 16.8081 1.39032 14.7867 0.661655C12.7653 -0.067006 10.5746 -0.188768 8.48478 0.311381C6.39493 0.811529 4.49726 1.91172 3.02572 3.47633C1.55419 5.04093 0.573105 7.00155 0.203432 9.11647C-0.166241 11.2314 0.0916537 13.4082 0.945323 15.3784C1.79899 17.3487 3.21112 19.0263 5.00761 20.2045C6.8041 21.3826 8.90642 22.0098 11.0554 22.0087H17.4562C18.6713 22.0075 19.8364 21.5247 20.6956 20.6663C21.5548 19.8079 22.0381 18.644 22.0393 17.43V10.3302ZM20.206 17.43C20.206 18.1586 19.9163 18.8574 19.4006 19.3726C18.8849 19.8878 18.1855 20.1772 17.4562 20.1772H11.0554C9.76198 20.1766 8.4832 19.9037 7.30246 19.3762C6.12171 18.8487 5.06551 18.0785 4.20271 17.1159C3.33575 16.1537 2.68472 15.0174 2.29329 13.7833C1.90186 12.5491 1.77907 11.2456 1.93315 9.96019C2.17646 7.93267 3.08827 6.0437 4.52485 4.59108C5.96143 3.13845 7.84107 2.2048 9.86745 1.9373C10.2627 1.8878 10.6607 1.86273 11.0591 1.86221C13.1952 1.85639 15.2653 2.60205 16.9062 3.96844C17.8646 4.76417 18.6512 5.74605 19.2184 6.85454C19.7856 7.96304 20.1216 9.17506 20.206 10.4172V17.43Z" fill="black"/>
<path d="M7.37332 8.27246H11.0398C11.2829 8.27246 11.5161 8.17598 11.688 8.00425C11.8599 7.83251 11.9564 7.59958 11.9564 7.35671C11.9564 7.11384 11.8599 6.88092 11.688 6.70918C11.5161 6.53744 11.2829 6.44096 11.0398 6.44096H7.37332C7.13021 6.44096 6.89706 6.53744 6.72516 6.70918C6.55326 6.88092 6.45669 7.11384 6.45669 7.35671C6.45669 7.59958 6.55326 7.83251 6.72516 8.00425C6.89706 8.17598 7.13021 8.27246 7.37332 8.27246Z" fill="black"/>
<path d="M14.7063 10.104H7.37332C7.13021 10.104 6.89706 10.2004 6.72516 10.3722C6.55326 10.5439 6.45669 10.7768 6.45669 11.0197C6.45669 11.2626 6.55326 11.4955 6.72516 11.6672C6.89706 11.839 7.13021 11.9355 7.37332 11.9355H14.7063C14.9494 11.9355 15.1826 11.839 15.3545 11.6672C15.5264 11.4955 15.6229 11.2626 15.6229 11.0197C15.6229 10.7768 15.5264 10.5439 15.3545 10.3722C15.1826 10.2004 14.9494 10.104 14.7063 10.104Z" fill="black"/>
<path d="M14.7063 13.767H7.37332C7.13021 13.767 6.89706 13.8634 6.72516 14.0352C6.55326 14.2069 6.45669 14.4398 6.45669 14.6827C6.45669 14.9256 6.55326 15.1585 6.72516 15.3303C6.89706 15.502 7.13021 15.5985 7.37332 15.5985H14.7063C14.9494 15.5985 15.1826 15.502 15.3545 15.3303C15.5264 15.1585 15.6229 14.9256 15.6229 14.6827C15.6229 14.4398 15.5264 14.2069 15.3545 14.0352C15.1826 13.8634 14.9494 13.767 14.7063 13.767Z" fill="black"/>
</svg>
