<svg width="22" height="23" viewBox="0 0 22 23" fill="none" xmlns="http://www.w3.org/2000/svg">
<path d="M3.04694 16.5227H18.9522C19.4417 16.5227 19.924 16.4163 20.3583 16.2126C20.7926 16.0089 21.1661 15.7138 21.4472 15.3523C21.7284 14.9908 21.9088 14.5735 21.9734 14.1358C22.0379 13.6981 21.9847 13.2528 21.8181 12.8375L18.9207 5.61112C18.4258 4.00519 17.3615 2.58968 15.8905 1.58108C14.4195 0.57248 12.6227 0.0263174 10.775 0.026123C8.85162 0.0260959 6.98571 0.617788 5.48536 1.70351C3.98502 2.78923 2.93996 4.30405 2.52273 5.99787L0.13532 12.9631C-0.00524239 13.3743 -0.0368422 13.8096 0.0430633 14.2338C0.122969 14.6581 0.312148 15.0595 0.595381 15.4057C0.878613 15.752 1.24799 16.0334 1.67379 16.2274C2.09959 16.4214 2.56992 16.5226 3.04694 16.5227Z" fill="url(#paint0_linear_16_959)"/>
<path d="M6.12721 18.3556C6.36037 19.3915 6.98335 20.3228 7.89058 20.9918C8.7978 21.6607 9.93349 22.0261 11.1052 22.0261C12.2769 22.0261 13.4126 21.6607 14.3198 20.9918C15.2271 20.3228 15.85 19.3915 16.0832 18.3556H6.12721Z" fill="url(#paint1_linear_16_959)"/>
<defs>
<linearGradient id="paint0_linear_16_959" x1="11" y1="0.026123" x2="11" y2="22.0261" gradientUnits="userSpaceOnUse">
<stop stop-color="#FF6A6A"/>
<stop offset="1" stop-color="#FF38EB"/>
</linearGradient>
<linearGradient id="paint1_linear_16_959" x1="11" y1="0.026123" x2="11" y2="22.0261" gradientUnits="userSpaceOnUse">
<stop stop-color="#FF6A6A"/>
<stop offset="1" stop-color="#FF38EB"/>
</linearGradient>
</defs>
</svg>
