<svg width="154" height="154" viewBox="0 0 154 154" fill="none" xmlns="http://www.w3.org/2000/svg">
<g filter="url(#filter0_d_2_42)">
<rect width="128" height="128" transform="translate(13 9)" fill="white"/>
<path d="M58 56.2709C58 49.0912 63.8203 43.2709 71 43.2709V103.295C63.8203 103.295 58 97.4743 58 90.2946V56.2709Z" fill="url(#paint0_linear_2_42)"/>
<path d="M58 56.2709C58 49.0912 63.8203 43.2709 71 43.2709V103.295C63.8203 103.295 58 97.4743 58 90.2946V56.2709Z" fill="url(#paint1_linear_2_42)"/>
<path d="M66 44.165C47.7429 52.0375 96.5 64.0637 96.5 83.9458L96.5 103.295C88.9605 103.295 82.7726 97.3436 82.5555 89.8073C82.2885 80.535 82 67.9036 82 56.6015C82 52.4887 78 38.9905 66 44.165Z" fill="url(#paint2_linear_2_42)"/>
</g>
<defs>
<filter id="filter0_d_2_42" x="0" y="0" width="154" height="154" filterUnits="userSpaceOnUse" color-interpolation-filters="sRGB">
<feFlood flood-opacity="0" result="BackgroundImageFix"/>
<feColorMatrix in="SourceAlpha" type="matrix" values="0 0 0 0 0 0 0 0 0 0 0 0 0 0 0 0 0 0 127 0" result="hardAlpha"/>
<feOffset dy="4"/>
<feGaussianBlur stdDeviation="6.5"/>
<feComposite in2="hardAlpha" operator="out"/>
<feColorMatrix type="matrix" values="0 0 0 0 0 0 0 0 0 0 0 0 0 0 0 0 0 0 0.04 0"/>
<feBlend mode="normal" in2="BackgroundImageFix" result="effect1_dropShadow_2_42"/>
<feBlend mode="normal" in="SourceGraphic" in2="effect1_dropShadow_2_42" result="shape"/>
</filter>
<linearGradient id="paint0_linear_2_42" x1="64.5" y1="43.2709" x2="64.5" y2="103.295" gradientUnits="userSpaceOnUse">
<stop stop-color="#FF6A6A"/>
<stop offset="1" stop-color="#FF38EB"/>
</linearGradient>
<linearGradient id="paint1_linear_2_42" x1="64.5" y1="43.2709" x2="64.5" y2="103.295" gradientUnits="userSpaceOnUse">
<stop stop-color="#FF6A6A"/>
<stop offset="1" stop-color="#FF38EB"/>
</linearGradient>
<linearGradient id="paint2_linear_2_42" x1="96.4975" y1="43.2709" x2="96.4975" y2="103.295" gradientUnits="userSpaceOnUse">
<stop stop-color="#FF6A6A"/>
<stop offset="1" stop-color="#FF38EB"/>
</linearGradient>
</defs>
</svg>
