<svg width="22" height="24" viewBox="0 0 22 24" fill="none" xmlns="http://www.w3.org/2000/svg">
<path d="M21.856 15.5464L19.3643 6.56582C18.8323 4.64476 17.6729 2.95688 16.0708 1.77079C14.4687 0.584704 12.5159 -0.0314167 10.5232 0.0204863C8.5305 0.0723894 6.61242 0.789333 5.07423 2.05721C3.53604 3.32509 2.46613 5.07105 2.03479 7.0172L0.107585 15.6901C0.0143324 16.1103 0.016607 16.546 0.114241 16.9652C0.211875 17.3844 0.402378 17.7763 0.671693 18.112C0.941009 18.4477 1.28227 18.7187 1.67029 18.905C2.05831 19.0912 2.48319 19.1879 2.91359 19.188H6.37029C6.59025 20.2712 7.17791 21.2451 8.03371 21.9446C8.88952 22.644 9.96083 23.0262 11.0661 23.0262C12.1714 23.0262 13.2427 22.644 14.0985 21.9446C14.9543 21.2451 15.542 20.2712 15.762 19.188H19.0874C19.5302 19.1878 19.9671 19.0853 20.3638 18.8885C20.7605 18.6917 21.1064 18.4059 21.3745 18.0534C21.6425 17.7009 21.8256 17.2913 21.9093 16.8564C21.993 16.4215 21.9741 15.9732 21.856 15.5464ZM11.0661 21.1047C10.4736 21.1022 9.89636 20.9168 9.41329 20.5737C8.93022 20.2306 8.56496 19.7467 8.36746 19.188H13.7648C13.5673 19.7467 13.202 20.2306 12.719 20.5737C12.2359 20.9168 11.6586 21.1022 11.0661 21.1047ZM19.8493 16.8928C19.7598 17.0114 19.644 17.1073 19.5108 17.173C19.3777 17.2388 19.231 17.2724 19.0826 17.2714H2.91359C2.77009 17.2713 2.62842 17.2391 2.49906 17.177C2.36969 17.1149 2.25591 17.0245 2.16614 16.9126C2.07636 16.8006 2.01287 16.67 1.98035 16.5302C1.94783 16.3904 1.94711 16.2452 1.97825 16.1051L3.90546 7.43216C4.24505 5.90477 5.08546 4.53473 6.29311 3.53984C7.50075 2.54494 9.00631 1.98228 10.5705 1.9413C12.1346 1.90033 13.6676 2.38338 14.9256 3.31369C16.1837 4.24399 17.0947 5.56815 17.5138 7.07565L20.0055 16.0562C20.0461 16.1982 20.0532 16.3477 20.0261 16.4929C19.999 16.6382 19.9384 16.7751 19.8493 16.8928Z" fill="black"/>
</svg>
