<svg width="12" height="12" viewBox="0 0 12 12" fill="none" xmlns="http://www.w3.org/2000/svg">
<path d="M5 12H0V11H5V12ZM4 9H0V10H4V9ZM3 7H0V8H3V7ZM6 0C4.40923 0.00172054 2.88411 0.634414 1.75926 1.75926C0.634414 2.88411 0.00172054 4.40923 0 6H1C1 5.01109 1.29324 4.04439 1.84265 3.22215C2.39206 2.3999 3.17295 1.75904 4.08658 1.3806C5.00021 1.00216 6.00555 0.903148 6.97545 1.09607C7.94536 1.289 8.83627 1.7652 9.53553 2.46447C10.2348 3.16373 10.711 4.05464 10.9039 5.02455C11.0969 5.99445 10.9978 6.99979 10.6194 7.91342C10.241 8.82705 9.6001 9.60794 8.77785 10.1573C7.95561 10.7068 6.98891 11 6 11V12C7.5913 12 9.11742 11.3679 10.2426 10.2426C11.3679 9.11742 12 7.5913 12 6C12 4.4087 11.3679 2.88258 10.2426 1.75736C9.11742 0.632141 7.5913 0 6 0ZM5.5 3.5V6.207L7.1465 7.8535L7.8535 7.1465L6.5 5.793V3.5H5.5Z" fill="black"/>
</svg>
