<svg width="17" height="23" viewBox="0 0 17 23" fill="none" xmlns="http://www.w3.org/2000/svg">
<path d="M8.46072 11.0261C11.4983 11.0261 13.9607 8.56369 13.9607 5.52612C13.9607 2.48856 11.4983 0.026123 8.46072 0.026123C5.42316 0.026123 2.96072 2.48856 2.96072 5.52612C2.96072 8.56369 5.42316 11.0261 8.46072 11.0261Z" fill="url(#paint0_linear_16_968)"/>
<path d="M8.46072 12.8595C3.90647 12.8645 0.215794 16.5552 0.210724 21.1095C0.210724 21.6157 0.621118 22.0261 1.12738 22.0261H15.794C16.3003 22.0261 16.7107 21.6157 16.7107 21.1095C16.7057 16.5552 13.015 12.8645 8.46072 12.8595Z" fill="url(#paint1_linear_16_968)"/>
<defs>
<linearGradient id="paint0_linear_16_968" x1="8.4607" y1="0.026123" x2="8.4607" y2="22.0261" gradientUnits="userSpaceOnUse">
<stop stop-color="#FF6A6A"/>
<stop offset="1" stop-color="#FF38EB"/>
</linearGradient>
<linearGradient id="paint1_linear_16_968" x1="8.4607" y1="0.026123" x2="8.4607" y2="22.0261" gradientUnits="userSpaceOnUse">
<stop stop-color="#FF6A6A"/>
<stop offset="1" stop-color="#FF38EB"/>
</linearGradient>
</defs>
</svg>
