<svg width="17" height="24" viewBox="0 0 17 24" fill="none" xmlns="http://www.w3.org/2000/svg">
<path d="M8.5 11.5261C9.62076 11.5261 10.7164 11.1889 11.6482 10.5571C12.5801 9.92526 13.3064 9.02723 13.7353 7.97655C14.1642 6.92588 14.2764 5.76975 14.0578 4.65436C13.8391 3.53896 13.2994 2.51441 12.5069 1.71026C11.7144 0.90611 10.7047 0.358475 9.60551 0.13661C8.50629 -0.0852547 7.36691 0.0286145 6.33146 0.463818C5.29601 0.899022 4.411 1.63601 3.78834 2.5816C3.16568 3.52718 2.83333 4.63888 2.83333 5.77612C2.83483 7.30065 3.43234 8.7623 4.49472 9.84031C5.5571 10.9183 6.99757 11.5246 8.5 11.5261ZM8.5 1.94279C9.24717 1.94279 9.97757 2.16761 10.5988 2.58882C11.2201 3.01004 11.7043 3.60872 11.9902 4.30917C12.2761 5.00962 12.351 5.78038 12.2052 6.52397C12.0594 7.26756 11.6996 7.9506 11.1713 8.4867C10.643 9.0228 9.96983 9.38789 9.23701 9.5358C8.50419 9.68371 7.74461 9.6078 7.05431 9.31766C6.36401 9.02753 5.774 8.5362 5.35889 7.90581C4.94379 7.27542 4.72222 6.53429 4.72222 5.77612C4.72222 4.75946 5.12024 3.78444 5.82871 3.06555C6.53718 2.34666 7.49807 1.94279 8.5 1.94279Z" fill="black"/>
<path d="M8.5 13.4428C6.24643 13.4453 4.08587 14.3548 2.49235 15.9718C0.898836 17.5887 0.00249981 19.7811 0 22.0678C0 22.322 0.0995036 22.5657 0.276621 22.7454C0.453739 22.9252 0.693962 23.0261 0.944444 23.0261C1.19493 23.0261 1.43515 22.9252 1.61227 22.7454C1.78938 22.5657 1.88889 22.322 1.88889 22.0678C1.88889 20.2886 2.58541 18.5823 3.82524 17.3243C5.06506 16.0662 6.74662 15.3595 8.5 15.3595C10.2534 15.3595 11.9349 16.0662 13.1748 17.3243C14.4146 18.5823 15.1111 20.2886 15.1111 22.0678C15.1111 22.322 15.2106 22.5657 15.3877 22.7454C15.5648 22.9252 15.8051 23.0261 16.0556 23.0261C16.306 23.0261 16.5463 22.9252 16.7234 22.7454C16.9005 22.5657 17 22.322 17 22.0678C16.9975 19.7811 16.1012 17.5887 14.5076 15.9718C12.9141 14.3548 10.7536 13.4453 8.5 13.4428Z" fill="black"/>
</svg>
