<svg width="10" height="15" viewBox="0 0 10 15" fill="none" xmlns="http://www.w3.org/2000/svg">
<path d="M10 5.1691C10.0008 4.27109 9.72374 3.39196 9.20221 2.63724C8.68068 1.88251 7.9368 1.28427 7.05986 0.914311C6.18292 0.544357 5.21019 0.418414 4.25843 0.551601C3.30667 0.684788 2.41633 1.07145 1.69428 1.66516C0.972226 2.25887 0.44915 3.03441 0.187837 3.89869C-0.0734754 4.76296 -0.0619196 5.67924 0.221118 6.53753C0.504155 7.39583 1.04665 8.15967 1.78347 8.73736C2.5203 9.31506 3.42014 9.68206 4.375 9.79431V11.5841H3.125C2.95924 11.5841 2.80027 11.6455 2.68306 11.7549C2.56585 11.8643 2.5 12.0126 2.5 12.1673C2.5 12.3219 2.56585 12.4703 2.68306 12.5796C2.80027 12.689 2.95924 12.7505 3.125 12.7505H4.375V13.9168C4.375 14.0715 4.44085 14.2198 4.55806 14.3292C4.67527 14.4386 4.83424 14.5 5 14.5C5.16576 14.5 5.32473 14.4386 5.44194 14.3292C5.55915 14.2198 5.625 14.0715 5.625 13.9168V12.7505H6.875C7.04076 12.7505 7.19973 12.689 7.31694 12.5796C7.43415 12.4703 7.5 12.3219 7.5 12.1673C7.5 12.0126 7.43415 11.8643 7.31694 11.7549C7.19973 11.6455 7.04076 11.5841 6.875 11.5841H5.625V9.79431C6.83219 9.65139 7.94222 9.10299 8.74746 8.2517C9.5527 7.40041 9.99798 6.30454 10 5.1691ZM1.25 5.1691C1.25 4.47705 1.46993 3.80053 1.88199 3.22511C2.29404 2.64969 2.87971 2.2012 3.56494 1.93636C4.25016 1.67153 5.00416 1.60223 5.73159 1.73725C6.45902 1.87226 7.1272 2.20552 7.65165 2.69487C8.1761 3.18423 8.53325 3.80771 8.67794 4.48646C8.82264 5.16522 8.74838 5.86877 8.46455 6.50814C8.18072 7.14752 7.70007 7.694 7.08339 8.07848C6.4667 8.46297 5.74168 8.66819 5 8.66819C4.00574 8.66726 3.05249 8.29831 2.34944 7.64231C1.6464 6.9863 1.25099 6.09683 1.25 5.1691Z" fill="#FF79E2"/>
</svg>
