<svg width="16" height="18" viewBox="0 0 16 18" fill="none" xmlns="http://www.w3.org/2000/svg">
<path d="M10.1818 17.5L5.81818 14.3125V10.6858L0 4.31083V2.625C0 2.06141 0.229869 1.52091 0.63904 1.1224C1.04821 0.723883 1.60316 0.5 2.18182 0.5H13.8182C14.3968 0.5 14.9518 0.723883 15.361 1.1224C15.7701 1.52091 16 2.06141 16 2.625V4.31083L10.1818 10.6858V17.5ZM7.27273 13.6042L8.72727 14.6667V10.1475L14.5455 3.7725V2.625C14.5455 2.43714 14.4688 2.25697 14.3324 2.12413C14.1961 1.99129 14.0111 1.91667 13.8182 1.91667H2.18182C1.98893 1.91667 1.80395 1.99129 1.66756 2.12413C1.53117 2.25697 1.45455 2.43714 1.45455 2.625V3.7725L7.27273 10.1475V13.6042Z" fill="#4E4E4E"/>
</svg>
